<svg width="208" height="191" viewBox="0 0 208 191" fill="none" xmlns="http://www.w3.org/2000/svg">
<path d="M201.056 30.3222L176.531 7.13474L152.228 146.467L13.5819 159.414C15.6629 161.198 22.6015 166.415 33.8385 175.69C45.0755 184.965 56.3571 187.581 60.5933 187.729C78.3555 188.25 121.55 189.469 152.228 190.182C183.264 188.22 193.847 164.691 195.259 153.171C198.455 130.95 205.381 81.4684 207.522 61.3132C209.662 41.1579 204.103 32.2545 201.056 30.3222Z" fill="url(#paint0_linear_1621_806)"/>
<g filter="url(#filter0_i_1621_806)">
<rect width="169.875" height="169.875" rx="36.2827" transform="matrix(-1 0 -0.13191 0.991262 192.283 0)" fill="url(#paint1_radial_1621_806)"/>
<rect width="169.875" height="169.875" rx="36.2827" transform="matrix(-1 0 -0.13191 0.991262 192.283 0)" fill="url(#paint2_linear_1621_806)"/>
</g>
<rect x="-0.563884" y="0.493817" width="168.879" height="168.879" rx="35.7845" transform="matrix(-1 0 -0.13191 0.991262 191.221 0.00431514)" stroke="url(#paint3_linear_1621_806)" stroke-width="0.99634"/>
<rect x="-0.563884" y="0.493817" width="168.879" height="168.879" rx="35.7845" transform="matrix(-1 0 -0.13191 0.991262 191.221 0.00431514)" stroke="url(#paint4_linear_1621_806)" stroke-width="0.99634"/>
<rect x="-0.563884" y="0.493817" width="168.879" height="168.879" rx="35.7845" transform="matrix(-1 0 -0.13191 0.991262 191.221 0.00431514)" stroke="black" stroke-opacity="0.2" stroke-width="0.99634"/>
<g opacity="0.8">
<path d="M103.286 85.5617C102.423 86.6399 100.85 86.8147 99.7719 85.9522L95.5004 82.535V94C95.5004 95.3807 94.3811 96.5 93.0004 96.5C91.6197 96.5 90.5004 95.3807 90.5004 94V82.5348L86.2287 85.9522C85.1505 86.8147 83.5773 86.6399 82.7148 85.5617C81.8522 84.4836 82.027 82.9104 83.1052 82.0478L91.4296 75.3883C91.8538 75.0453 92.3925 74.8383 92.9793 74.8334C92.9863 74.8334 92.9933 74.8333 93.0004 74.8333L93.0085 74.8334C93.6055 74.8352 94.1532 75.0464 94.5822 75.3973L102.895 82.0478C103.973 82.9104 104.148 84.4836 103.286 85.5617Z" fill="white"/>
<path fill-rule="evenodd" clip-rule="evenodd" d="M80.9338 67.9801C84.1396 62.9991 89.7353 59.6944 96.1067 59.6944C105.708 59.6944 113.557 67.1992 114.107 76.663C114.319 76.6541 114.531 76.6496 114.745 76.6496C122.988 76.6496 129.67 83.3318 129.67 91.5748C129.67 99.8178 122.988 106.5 114.745 106.5H75.9157C65.0994 106.5 56.3311 97.7316 56.3311 86.9153C56.3311 76.099 65.0994 67.3307 75.9157 67.3307C77.6479 67.3307 79.3303 67.5561 80.9338 67.9801ZM96.1067 64.6944C90.939 64.6944 86.469 67.7021 84.3608 72.0737C83.794 73.2491 82.4185 73.7908 81.2024 73.3176C79.5666 72.6811 77.7851 72.3307 75.9157 72.3307C67.8608 72.3307 61.3311 78.8604 61.3311 86.9153C61.3311 94.9702 67.8608 101.5 75.9157 101.5H114.745C120.226 101.5 124.67 97.0563 124.67 91.5748C124.67 86.0932 120.226 81.6496 114.745 81.6496C113.853 81.6496 112.992 81.7666 112.175 81.9847C111.374 82.1986 110.52 82.0017 109.893 81.4592C109.267 80.9166 108.95 80.0988 109.047 79.2758C109.107 78.7685 109.138 78.2513 109.138 77.7259C109.138 70.5288 103.304 64.6944 96.1067 64.6944Z" fill="white"/>
</g>
<defs>
<filter id="filter0_i_1621_806" x="4.91309" y="0" width="183.117" height="168.391" filterUnits="userSpaceOnUse" color-interpolation-filters="sRGB">
<feFlood flood-opacity="0" result="BackgroundImageFix"/>
<feBlend mode="normal" in="SourceGraphic" in2="BackgroundImageFix" result="shape"/>
<feColorMatrix in="SourceAlpha" type="matrix" values="0 0 0 0 0 0 0 0 0 0 0 0 0 0 0 0 0 0 127 0" result="hardAlpha"/>
<feOffset dx="0.659685"/>
<feGaussianBlur stdDeviation="0.659685"/>
<feComposite in2="hardAlpha" operator="arithmetic" k2="-1" k3="1"/>
<feColorMatrix type="matrix" values="0 0 0 0 0.794115 0 0 0 0 0.798937 0 0 0 0 0.804167 0 0 0 0.58 0"/>
<feBlend mode="normal" in2="shape" result="effect1_innerShadow_1621_806"/>
</filter>
<linearGradient id="paint0_linear_1621_806" x1="173.557" y1="-6.68782" x2="32.4401" y2="169.039" gradientUnits="userSpaceOnUse">
<stop offset="0.0370143" stop-color="#010206"/>
<stop offset="0.134219" stop-color="#4F545E"/>
<stop offset="0.451646" stop-color="#3C4149"/>
<stop offset="0.485154" stop-color="#282B31"/>
<stop offset="0.526023" stop-color="#040510"/>
<stop offset="0.581312" stop-color="#040409"/>
<stop offset="0.620773" stop-color="#4B4A4D"/>
<stop offset="0.716746" stop-color="#03030D"/>
<stop offset="0.90079" stop-color="#03040E"/>
<stop offset="1"/>
</linearGradient>
<radialGradient id="paint1_radial_1621_806" cx="0" cy="0" r="1" gradientUnits="userSpaceOnUse" gradientTransform="translate(156.615 33.2609) rotate(146.677) scale(185.228 336.453)">
<stop stop-color="#474747"/>
<stop offset="0.343668" stop-color="#303030"/>
<stop offset="0.639277" stop-color="#202020"/>
<stop offset="1" stop-color="#191413"/>
</radialGradient>
<linearGradient id="paint2_linear_1621_806" x1="7.21972" y1="25.203" x2="211.122" y2="186.918" gradientUnits="userSpaceOnUse">
<stop stop-color="#030303" stop-opacity="0.62"/>
<stop offset="0.134789" stop-color="#191413" stop-opacity="0.16"/>
<stop offset="0.215402" stop-color="#032263" stop-opacity="0"/>
<stop offset="0.718692" stop-color="#041C4F" stop-opacity="0"/>
<stop offset="0.797654" stop-color="#191413" stop-opacity="0.15"/>
<stop offset="1" stop-color="#191413" stop-opacity="0.55"/>
</linearGradient>
<linearGradient id="paint3_linear_1621_806" x1="-0.0530869" y1="83.8828" x2="34.2227" y2="84.6576" gradientUnits="userSpaceOnUse">
<stop stop-color="#767676"/>
<stop offset="1" stop-color="#000910" stop-opacity="0"/>
</linearGradient>
<linearGradient id="paint4_linear_1621_806" x1="164.191" y1="181.975" x2="121.898" y2="162.721" gradientUnits="userSpaceOnUse">
<stop stop-color="#868889"/>
<stop offset="1" stop-color="#000C14" stop-opacity="0"/>
</linearGradient>
</defs>
</svg>
